<svg xmlns="http://www.w3.org/2000/svg" viewBox="0 0 24 24" id="search"><g fill="#303c42" data-name="Search People"><circle cx="9.5" cy="6.5" r="2.5"></circle><path d="M12.92 10.53a6.94 6.94 0 0 0-3.42-1 6.94 6.94 0 0 0-3.42 1 2.3 2.3 0 0 0-1.08 2v.32A1.12 1.12 0 0 0 6.07 14h6.86A1.12 1.12 0 0 0 14 12.84v-.32a2.3 2.3 0 0 0-1.08-1.99Z"></path><path d="m22.71 21.29-6.54-6.54a8.52 8.52 0 1 0-1.41 1.41l6.54 6.54a1 1 0 0 0 1.41-1.41ZM3 9.5A6.5 6.5 0 1 1 9.5 16 6.51 6.51 0 0 1 3 9.5Z"></path></g></svg>